<?xml version="1.0" encoding="utf-8"?>
<!-- Generator: Adobe Illustrator 23.1.1, SVG Export Plug-In . SVG Version: 6.00 Build 0)  -->
<svg version="1.1" id="Layer_1" xmlns="http://www.w3.org/2000/svg" xmlns:xlink="http://www.w3.org/1999/xlink" x="0px" y="0px"
	 viewBox="0 0 67.9 21.1" style="enable-background:new 0 0 67.9 21.1;" xml:space="preserve">
<style type="text/css">
	.st0{fill:#FFFFFF;}
</style>
<title>Themesberg</title>
<g>
	<g>
		<path class="st0" d="M1.5,12.9l1.7-2.1c1,0.8,2.2,1.4,3.5,1.4c1.3,0,1.8-0.5,1.8-1.2c0-1-0.8-1.2-2-1.8L4.8,8.5
			C3.3,7.9,2,6.8,2,4.8c0-2.3,2-4.1,4.8-4.1c1.6,0,3.2,0.6,4.4,1.8l-1.5,2c-0.9-0.7-1.7-1.1-3-1.1C5.7,3.4,5,3.8,5,4.6
			c0,0.8,0.9,1.1,2.1,1.6l1.6,0.7c1.7,0.7,2.8,1.8,2.8,3.7c0,2.3-1.8,4.2-5.1,4.2C4.7,14.9,2.9,14.2,1.5,12.9z"/>
		<path class="st0" d="M13,0.9h4.7c2.8,0,5.1,1.1,5.1,4.4c0,3.2-2.4,4.6-5.1,4.6H16v4.6h-3V0.9z M17.5,7.5c1.6,0,2.4-0.8,2.4-2.2
			c0-1.4-0.8-1.9-2.4-1.9H16v4.1H17.5z"/>
		<path class="st0" d="M26.9,0.9h3.6l4.1,13.7h-3.1l-1.7-6.9c-0.3-1.4-0.7-3-1-4.4h-0.1c-0.3,1.4-0.7,3-1,4.4l-1.7,6.9h-3L26.9,0.9z
			 M25.5,9h6.3v2.4h-6.3V9z"/>
		<path class="st0" d="M34.8,7.9c0-4.5,2.8-7.2,6.3-7.2c1.7,0,3,0.8,3.9,1.7l-1.6,1.9c-0.6-0.6-1.3-1-2.3-1c-1.9,0-3.2,1.7-3.2,4.4
			c0,2.8,1.4,4.4,3.3,4.4c0.9,0,1.7-0.5,2.4-1.2l1.6,1.9c-1.1,1.3-2.5,2-4.3,2C37.6,14.9,34.8,12.5,34.8,7.9z"/>
		<path class="st0" d="M46.6,0.9h8.7v2.6h-5.7v2.7h4.9v2.6h-4.9V12h5.9v2.6h-8.9V0.9z"/>
		<path class="st0" d="M56.8,12.9l1.7-2.1c1,0.8,2.2,1.4,3.5,1.4c1.3,0,1.8-0.5,1.8-1.2c0-1-0.8-1.2-2-1.8l-1.7-0.8
			c-1.5-0.6-2.8-1.7-2.8-3.7c0-2.3,2-4.1,4.8-4.1c1.6,0,3.2,0.6,4.4,1.8l-1.5,2c-0.9-0.7-1.7-1.1-3-1.1c-1,0-1.6,0.4-1.6,1.2
			c0,0.8,0.9,1.1,2.1,1.6l1.6,0.7c1.7,0.7,2.8,1.8,2.8,3.7c0,2.3-1.8,4.2-5.1,4.2C60,14.9,58.2,14.2,56.8,12.9z"/>
	</g>
</g>
<path class="st0" d="M11.2,19.9c0-0.9,0-2,0-2.8c0,0,0,0,0-0.1c-1,0.4-2.7,0.9-4.7,0.9c-2,0-3.7-0.5-4.7-0.9c0,0.5,0,1,0,1.5
	c0,0.5,0,1,0,1.5H11.2z"/>
</svg>
